<svg xmlns="http://www.w3.org/2000/svg" width="34" height="26" viewBox="0 0 34 26">
  <path d="M16.9933726,25.5835819 C12.5733778,25.5835819 8.15299688,25.5835819 3.73222991,25.5835819 C2.64470039,25.5835819 1.71005041,25.2233884 0.964762611,24.4201917 C0.311549991,23.7171774 0,22.8780771 0,21.9196845 C0,15.8342291 0,9.74896672 0,3.66389738 C0,1.87972355 1.17728835,0.42852601 2.92671683,0.0712279719 C3.18745029,0.0220796148 3.45245332,-0.000812301966 3.71775268,0.00289544601 C12.2593184,0.000965148671 20.8008842,0 29.3424499,0 C30.7571648,0 31.7919972,0.863422001 32.0062602,2.25439427 C32.1220781,3.02632017 31.8939169,3.71369906 31.3802648,4.30321186 C31.3264095,4.36517441 31.2679215,4.42308333 31.2100126,4.48099225 C27.3513482,8.35625719 23.4934559,12.2311361 19.6363358,16.1056289 C18.8464581,16.8995602 17.8990682,17.2858127 16.7791096,17.2215338 C15.924835,17.1840654 15.1156641,16.8276251 14.5113963,16.2226049 C11.3843146,13.1210031 8.26051444,10.0141896 5.13999576,6.9021642 C4.45087961,6.21536441 4.73463332,5.10293405 5.65480606,4.85160934 C6.07310413,4.72452728 6.52727543,4.84598386 6.82630352,5.1648966 C9.90937443,8.24410692 12.9895499,11.3265987 16.0668299,14.4123721 C16.6076992,14.9567159 17.3923651,14.9399223 17.9158617,14.4123721 C21.7617862,10.5328605 25.6179412,6.66338642 29.4843267,2.80394992 C29.563662,2.72403561 29.6933779,2.6603358 29.6302572,2.50571898 C29.5671365,2.35110216 29.4316296,2.39453385 29.3175491,2.39453385 C20.8003051,2.39453385 12.282868,2.39337567 3.76523799,2.39105932 C3.3413447,2.39105932 2.97709759,2.499349 2.70145113,2.83811618 C2.5403461,3.03907366 2.4474471,3.2861282 2.43622827,3.54344683 C2.43622827,3.58224581 2.43622827,3.62046569 2.43622827,3.65926467 C2.43622827,9.73506858 2.43622827,15.8106795 2.43622827,21.8860973 C2.43622827,22.5167255 2.79468449,22.9828923 3.38767183,23.1149246 C3.50220865,23.1361667 3.61868902,23.1450969 3.73512536,23.1415627 C12.5870829,23.1415627 21.4390405,23.143493 30.290998,23.1473536 C31.0965111,23.1473536 31.6003187,22.5624735 31.5980023,21.8328211 C31.5858415,17.6633789 31.5922114,13.4939366 31.5922114,9.32449434 C31.5922114,8.72282066 31.939665,8.26765654 32.5036978,8.12288424 C32.8591455,8.03032765 33.2374137,8.10667381 33.5291369,8.32984941 C33.8208601,8.553025 33.9935097,8.89814481 33.9971689,9.26542724 C34.0035389,9.99913326 33.9971689,10.7328393 33.9971689,11.4659662 C33.9971689,14.9405014 33.9971689,18.4150366 33.9971689,21.8895719 C33.9971689,23.6905393 32.7961379,25.1643213 31.0299158,25.5146703 C30.7654849,25.5622272 30.497105,25.5843336 30.2284564,25.5806864 C25.8154106,25.584161 21.403716,25.5851261 16.9933726,25.5835819 Z"/>
</svg>
