<?xml version="1.0" encoding="utf-8"?><svg xmlns="http://www.w3.org/2000/svg" xmlns:xlink="http://www.w3.org/1999/xlink"><symbol viewBox="0 0 34 26" id="email" xmlns="http://www.w3.org/2000/svg"><path d="M16.993 25.584H3.733c-1.088 0-2.023-.36-2.768-1.164C.312 23.717 0 22.878 0 21.92V3.664C0 1.88 1.177.429 2.927.07c.26-.049.525-.072.79-.068L29.343 0c1.415 0 2.45.863 2.664 2.254.116.772-.112 1.46-.626 2.05a3.55 3.55 0 0 1-.17.177L19.636 16.106c-.79.794-1.737 1.18-2.857 1.116a3.417 3.417 0 0 1-2.268-1c-3.127-3.101-6.25-6.208-9.371-9.32-.69-.687-.405-1.8.515-2.05a1.148 1.148 0 0 1 1.171.313 6521.49 6521.49 0 0 1 9.24 9.247c.542.545 1.326.528 1.85 0A3123.4 3123.4 0 0 1 29.484 2.804c.08-.08.21-.144.146-.298-.063-.155-.198-.111-.312-.111-8.518 0-17.035-.002-25.553-.004-.424 0-.788.108-1.064.447a1.212 1.212 0 0 0-.265.705v18.343c0 .63.359 1.097.952 1.229.114.021.23.03.347.027 8.852 0 17.704.001 26.556.005.806 0 1.31-.585 1.307-1.314-.012-4.17-.006-8.34-.006-12.509 0-.601.348-1.056.912-1.201a1.193 1.193 0 0 1 1.493 1.142c.007.734 0 1.468 0 2.201V21.89c0 1.8-1.2 3.274-2.967 3.625a4.23 4.23 0 0 1-.802.066c-4.413.003-8.824.004-13.235.003z"/></symbol></svg>